<?xml version="1.0" encoding="UTF-8"?>
<svg width="36px" height="28px" viewBox="0 0 36 28" version="1.1" xmlns="http://www.w3.org/2000/svg" xmlns:xlink="http://www.w3.org/1999/xlink">
    <!-- Generator: Sketch 43.1 (39012) - http://www.bohemiancoding.com/sketch -->
    <title>shipping_icn</title>
    <desc>Created with Sketch.</desc>
    <defs>
        <path d="M7.01114754,0.0150491803 L11.743082,0.0150491803 C12.8995082,0.0150491803 13.845541,1.2092459 13.845541,2.66872131 L13.845541,13.2837049 L13.845541,20.1393443 L11.25,20.1393443 C11.25,17.9282951 9.198,15.969541 6.9235082,15.969541 C4.64901639,15.969541 2.59672131,17.9282951 2.59672131,20.1393443 L0.00118032787,20.1393443 L0.00118032787,8.63970492 L2.98032787,4.97390164 L7.01114754,0.0150491803 Z M3.64013115,8.23160656 L3.64013115,9.74331148 L11.3084262,9.74331148 L11.3084262,5.05622951 L11.2818689,4.11609836 C11.2818689,2.51291803 10.6610164,2.33468852 9.87078689,2.33468852 L8.43285246,2.33468852 L5.67737705,5.72547541 L3.64013115,8.23160656 Z" id="path-1"></path>
        <path d="M2.34867347,0.293901639 C1.19239457,0.293901639 0.246742176,1.40931148 0.246742176,2.77318033 L0.246742176,16.6184262 C0.246742176,17.9828852 1.19239457,19.0985902 2.34867347,19.0985902 L18.8139464,19.0985902 C19.9696475,19.0985902 20.9158777,17.9828852 20.9158777,16.6184262 L20.9158777,2.77318033 C20.9158777,1.40931148 19.9696475,0.293901639 18.8139464,0.293901639 L2.34867347,0.293901639 Z" id="path-3"></path>
        <path d="M0.216590164,3.61770492 C0.216590164,5.50268852 1.76606557,7.03003279 3.67760656,7.03003279 C5.58885246,7.03003279 7.13832787,5.50268852 7.13832787,3.61770492 C7.13832787,1.73331148 5.58885246,0.205377049 3.67760656,0.205377049 C1.76606557,0.205377049 0.216590164,1.73331148 0.216590164,3.61770492 Z" id="path-5"></path>
        <path d="M0.179114754,3.61770492 C0.179114754,5.50268852 1.72859016,7.03003279 3.64013115,7.03003279 C5.55196721,7.03003279 7.10144262,5.50268852 7.10144262,3.61770492 C7.10144262,1.73331148 5.55196721,0.205377049 3.64013115,0.205377049 C1.72859016,0.205377049 0.179114754,1.73331148 0.179114754,3.61770492 Z" id="path-7"></path>
    </defs>
    <g id="Page-1" stroke="none" stroke-width="1" fill="none" fill-rule="evenodd">
        <g id="index" transform="translate(-401.000000, -807.000000)">
            <g id="block-3" transform="translate(344.000000, 775.000000)">
                <g id="shipping_icn" transform="translate(57.000000, 27.000000)">
                    <g id="Group-3" transform="translate(0.000000, 8.219344)">
                        <mask id="mask-2" fill="white">
                            <use xlink:href="#path-1"></use>
                        </mask>
                        <g id="Clip-2"></g>
                        <polygon id="Fill-1" fill="#E74D46" mask="url(#mask-2)" points="-4.32501639 24.4658361 18.1720328 24.4658361 18.1720328 -1.96672131 -4.32501639 -1.96672131"></polygon>
                    </g>
                    <g id="Group-6" transform="translate(14.459016, 5.268525)">
                        <mask id="mask-4" fill="white">
                            <use xlink:href="#path-3"></use>
                        </mask>
                        <g id="Clip-5"></g>
                        <polygon id="Fill-4" fill="#E74D46" mask="url(#mask-4)" points="-3.98948005 23.857377 20.9158777 23.857377 20.9158777 -4.46518033 -3.98948005 -4.46518033"></polygon>
                    </g>
                    <g id="Group-10" transform="translate(3.245902, 25.334098)">
                        <mask id="mask-6" fill="white">
                            <use xlink:href="#path-5"></use>
                        </mask>
                        <g id="Clip-8"></g>
                        <polygon id="Fill-7" fill="#E74D46" mask="url(#mask-6)" points="-4.10960656 11.3562295 11.4651148 11.3562295 11.4651148 -4.12081967 -4.10960656 -4.12081967"></polygon>
                        <polygon id="Fill-9" fill="#E74D46" mask="url(#mask-6)" points="-4.10960656 11.3562295 11.4651148 11.3562295 11.4651148 -4.12081967 -4.10960656 -4.12081967"></polygon>
                    </g>
                    <g id="Group-13" transform="translate(21.540984, 25.334098)">
                        <mask id="mask-8" fill="white">
                            <use xlink:href="#path-7"></use>
                        </mask>
                        <g id="Clip-12"></g>
                        <polygon id="Fill-11" fill="#E74D46" mask="url(#mask-8)" points="-4.14708197 11.3562295 11.4279344 11.3562295 11.4279344 -4.12081967 -4.14708197 -4.12081967"></polygon>
                    </g>
                    <g id="Group-18" transform="translate(14.459016, 25.629180)" fill="#E74D46">
                        <path d="M20.8250959,2.7295082 L20.8250959,0.181180328 L13.8272055,0.181180328 C14.4629589,0.867245902 14.8927397,1.74983607 15.0178767,2.7295082 L20.8250959,2.7295082 Z" id="Fill-14"></path>
                        <path d="M0.245642466,2.7295082 L6.05257397,2.7295082 C6.17799863,1.74983607 6.60749178,0.867245902 7.24353288,0.181180328 L0.245642466,0.181180328 L0.245642466,2.7295082 Z" id="Fill-16"></path>
                    </g>
                </g>
            </g>
        </g>
    </g>
</svg>