<?xml version="1.0" encoding="UTF-8"?>
<svg width="26px" height="36px" viewBox="0 0 26 36" version="1.1" xmlns="http://www.w3.org/2000/svg" xmlns:xlink="http://www.w3.org/1999/xlink">
    <!-- Generator: Sketch 43.1 (39012) - http://www.bohemiancoding.com/sketch -->
    <title>beginner_icn</title>
    <desc>Created with Sketch.</desc>
    <defs>
        <polygon id="path-1" points="0.6 33.2324243 0.6 0.340657599 12.7497665 0.340657599 12.7497665 33.2324243 0.6 33.2324243"></polygon>
        <path d="M27.1047257,1.32440986 C27.0918757,1.29411306 27.0774194,1.2684773 27.0629631,1.24051103 C26.9842567,1.09368807 26.9007315,0.963178784 26.8075688,0.837330539 C26.7272562,0.72313491 26.6405185,0.625252942 26.5521745,0.529701497 C26.5248682,0.504065743 26.5055932,0.466777374 26.4798931,0.443472144 C26.4606181,0.427158482 26.4397368,0.420166913 26.422068,0.406183775 C26.2967802,0.291988145 26.1634612,0.205758793 26.0221109,0.133512578 C25.8518481,0.0542747942 25.699254,0.0146559024 25.5418411,0.000672764055 C25.5145348,-0.001657759 25.490441,0.00300328711 25.4631347,0.000672764055 C25.3330282,0.000672764055 25.2029217,0.00533381016 25.0647839,0.044952702 C24.8864897,0.0938936861 24.7081956,0.17313147 24.5379328,0.296649192 C24.3965825,0.399192206 24.2455946,0.518048881 24.0801505,0.655549741 C24.0367817,0.690507587 23.9934129,0.725465433 23.9468315,0.765084325 C23.7492623,0.930551461 23.5324181,1.11466278 23.2898739,1.3290709 C21.8490645,2.59454492 19.7994852,4.53820114 18.5450013,5.73842052 C18.5385763,5.74541208 18.4695074,5.81066673 18.4695074,5.81066673 C18.0904316,6.17655885 17.7980934,6.45622161 17.6230118,6.62401927 L17.4398989,6.80113903 C17.2487548,6.9805893 16.895379,7.28588782 16.5564596,7.5772032 C16.2544839,7.83123021 15.9974834,8.04796886 15.7918829,8.24839384 C15.7308453,8.30199587 15.684264,8.34627581 15.6601702,8.37191156 C15.5140011,8.53504818 15.4144134,8.66322694 15.3324945,8.79839728 C15.240938,8.95454233 15.1750816,9.1036958 15.126894,9.27382398 C15.0995877,9.36704491 15.0867377,9.47191844 15.0690689,9.57446146 C15.0578251,9.64437715 15.0401563,9.70497075 15.0305188,9.78420853 C15.0096375,9.98463351 15,10.1967111 15,10.4320939 L15,30.7076445 C15,31.8938807 15.0048188,32.9519382 15.0096375,33.6510951 L15.01285,34.5599991 C15.01285,34.5599991 15.0923235,34.5098311 15.1320602,34.4847471 C15.4098262,34.3094061 15.9653583,33.9587241 15.9653583,33.9587241 C16.0954648,33.8771558 16.2593027,33.7676212 16.4102905,33.6674088 C16.4600844,33.637112 16.5034532,33.6091457 16.5516408,33.5765184 C16.6978099,33.4786364 16.8584352,33.3714323 17.022273,33.2595672 C17.1539858,33.1710073 17.2873049,33.0801169 17.4254427,32.986896 C17.5651867,32.8913446 17.7081433,32.7934626 17.8575248,32.6885891 C18.0406377,32.5604103 18.2269631,32.4322315 18.4181073,32.2970612 C18.5642763,32.1945182 18.7056266,32.0966362 18.8598269,31.9871016 C19.1650151,31.7726935 19.475022,31.5512938 19.7882414,31.3252331 C19.8573103,31.2786226 19.9151354,31.2366732 19.9842043,31.1877322 L20.2636924,30.9849767 C22.7565977,29.1858129 25.1675841,27.3796576 25.1675841,27.3796576 C25.1900716,27.3610134 25.2189842,27.3400387 25.2414718,27.3213945 C25.4165534,27.221182 25.6414289,27.0370707 25.933767,26.7877047 C25.9771358,26.7480858 26.0060484,26.7271111 26.0510235,26.6874922 C26.0702985,26.6711786 26.079936,26.6502039 26.0992111,26.6338902 C26.3192678,26.4357957 26.5393245,26.209735 26.7384999,25.906767 C26.7722313,25.8554955 26.7963251,25.7972324 26.8284501,25.7459609 C26.9408879,25.5571885 27.0452943,25.3404499 27.1416695,25.095745 C27.2011009,24.9465915 27.2557135,24.7834549 27.3039011,24.6179877 C27.3504825,24.4525206 27.3858201,24.2614177 27.4243701,24.0703148 C27.461314,23.8745509 27.5062891,23.6881091 27.5287766,23.4713704 C27.5769642,23.0588678 27.607483,22.6044158 27.607483,22.0823787 L27.607483,3.47315211 C27.607483,3.21679457 27.5833892,2.95344547 27.5400204,2.69242689 C27.4645265,2.18670339 27.3103261,1.72759034 27.1047257,1.32440986 Z" id="path-3"></path>
    </defs>
    <g id="Page-1" stroke="none" stroke-width="1" fill="none" fill-rule="evenodd">
        <g id="index" transform="translate(-430.000000, -488.000000)">
            <g id="block-1" transform="translate(344.000000, 461.000000)">
                <g id="title" transform="translate(81.000000, 28.000000)">
                    <g id="beginner_icn">
                        <g id="Group" transform="translate(3.000000, 0.000000)">
                            <g id="Group-3">
                                <mask id="mask-2" fill="white">
                                    <use xlink:href="#path-1"></use>
                                </mask>
                                <g id="Clip-2"></g>
                                <path d="M15.1358347,33.2324243 C13.7085993,32.6551178 5.35106836,26.4557346 5.35106836,26.4557346 C4.47026911,25.7363219 2.9996904,25.1590155 2.9996904,21.4109643 L2.9996904,3.67877439 C2.9996904,1.77588348 4.3263072,-0.50003621 5.95787557,0.652356298 C7.38046697,1.65820178 12.7983885,6.8517395 12.7983885,6.8517395 C14.5228356,8.43711185 15.1497665,8.40824653 15.1497665,10.3111374 L15.1497665,29.6286997 C15.1497665,31.5293702 15.1358347,33.2324243 15.1358347,33.2324243" id="Fill-1" fill="#FFFFFF" mask="url(#mask-2)"></path>
                                <path d="M5.32208438,26.5392667 C4.4521422,25.8287217 2.9996904,25.2585314 2.9996904,21.5566801 L2.9996904,4.04306397 C2.9996904,2.16362883 4.30995481,-0.0842370107 5.92141185,1.05395067 C7.32646785,2.04739771 12.677606,7.1769179 12.677606,7.1769179 C14.3807969,8.74274835 15,8.71423883 15,10.593674 L15,29.6731206 C15,31.5503627 14.9862399,33.2324243 14.9862399,33.2324243 C13.5765972,32.6622339 5.32208438,26.5392667 5.32208438,26.5392667 Z" id="Fill-1-Copy" stroke="#E74D46" stroke-width="2" fill="#FFFFFF"></path>
                            </g>
                            <g id="Fill-6">
                                <use fill="#E74D46" fill-rule="evenodd" xlink:href="#path-3"></use>
                                <path stroke="#E74D46" stroke-width="1" d="M25.6959303,26.3333632 C25.690061,26.338298 25.6836818,26.3435742 25.6726658,26.3526856 C25.6711056,26.3539794 25.6711056,26.3539794 25.6695115,26.3553026 C25.6377156,26.3818208 25.6377156,26.3818208 25.5965336,26.4185521 C25.2842339,26.6845654 25.1118562,26.8194726 24.9930925,26.8874501 C24.916554,26.9411635 24.916554,26.9411635 24.8992838,26.9545134 C24.8780039,26.9708776 24.8780039,26.9708776 24.848457,26.9947447 C24.7933753,27.0352499 24.653184,27.1400088 24.4562292,27.2867643 C24.1278173,27.5314713 23.7606279,27.8041732 23.3636619,28.0978635 C22.2295677,28.9369091 21.0842582,29.7759214 19.9998628,30.5587653 C19.985474,30.5691524 19.985474,30.5691524 19.9710827,30.5795393 L19.6906004,30.7830142 C19.6434376,30.8165188 19.6434376,30.8165188 19.5975531,30.8491045 C19.5885667,30.8554531 19.5885667,30.8554531 19.5796779,30.8617072 C19.544485,30.8863221 19.544485,30.8863221 19.5085505,30.910778 C19.1666392,31.1572403 18.8618647,31.3746119 18.5723976,31.5779753 C18.4814552,31.642567 18.411074,31.6919291 18.2562552,31.8000609 C18.2534292,31.8020354 18.2534292,31.8020354 18.2506023,31.8040106 C18.1911397,31.8455667 18.1911397,31.8455667 18.130954,31.887741 C18.004791,31.9769547 17.579948,32.2725651 17.570794,32.2789728 L17.5694889,32.2798895 C17.4464041,32.3663004 17.3400071,32.4396056 17.1432273,32.5741558 C17.1031121,32.6012159 16.8227146,32.7912326 16.7432864,32.8446377 C16.6116139,32.9345256 16.5772185,32.9576366 16.2734335,33.161066 C16.2288095,33.1912725 16.1922771,33.2147791 16.1503953,33.2402618 C16.0765225,33.2888525 16.0765225,33.2888525 16.0188735,33.3271392 C16.0129195,33.3310906 16.0129195,33.3310906 16.0069701,33.3350378 C15.8669633,33.4279193 15.7768282,33.4867831 15.6997697,33.5350938 C15.6267492,33.5811866 15.5964663,33.6003021 15.5096548,33.655102 L15.5096344,33.6493279 C15.5037677,32.7977168 15.5,31.7548137 15.5,30.7076445 L15.5,10.4320939 C15.5,10.2103966 15.5090787,10.0159735 15.5278271,9.83602064 C15.5292187,9.8251935 15.5325335,9.80705703 15.5408699,9.76735163 C15.5431748,9.75639359 15.5431748,9.75639359 15.5457055,9.74429998 C15.5539276,9.7044451 15.5539276,9.7044451 15.562726,9.65385091 C15.5667655,9.63010752 15.5667655,9.63010752 15.5712145,9.6026585 C15.5733655,9.58928273 15.5733655,9.58928273 15.5754305,9.5763806 C15.5902638,9.48373216 15.5975559,9.44570438 15.606732,9.41437831 C15.6432971,9.2853569 15.6911882,9.17516707 15.7638155,9.05130461 C15.8225025,8.95456999 15.9024698,8.85075808 16.0325585,8.70556845 C16.0375947,8.70041677 16.075243,8.66498491 16.1218114,8.6240895 C16.3030077,8.44839904 16.4676548,8.30529188 16.8783285,7.95982622 C17.3518328,7.5528669 17.6117748,7.32559634 17.7821258,7.16566715 L17.9706351,6.98340495 C18.4779208,6.49723133 18.5208445,6.45603453 18.8167496,6.17042062 C18.8227526,6.16478851 18.8227526,6.16478851 18.852205,6.13682495 C18.8524275,6.13661322 18.8524275,6.13661322 18.85265,6.13640139 C18.8772473,6.11317316 18.8772473,6.11317316 18.9131564,6.07674254 C20.7674188,4.30411928 22.4261103,2.75319548 23.6198294,1.70474277 C23.8322713,1.51694838 24.0321804,1.34579794 24.2678687,1.14840548 C24.3052182,1.11665752 24.3308451,1.09570027 24.3939341,1.04483093 C24.5611778,0.905907572 24.7028678,0.794710544 24.8315367,0.70136725 C24.9431932,0.620365755 25.0640342,0.563653408 25.1971361,0.527117503 C25.2673382,0.507016908 25.3358413,0.500672764 25.4631347,0.500672764 C25.4910187,0.501776007 25.4936834,0.501881438 25.5169987,0.500609409 C25.6130515,0.511082678 25.7044648,0.537178975 25.8111454,0.58682654 C25.9088616,0.637153523 26.0020035,0.699839009 26.0852512,0.775716515 C26.1078142,0.79271816 26.1246139,0.805377082 26.137581,0.815054726 C26.1583949,0.841545881 26.1811953,0.867236317 26.2099476,0.894229617 C26.2833355,0.975445691 26.3439967,1.04734422 26.398586,1.12496413 C26.4868423,1.24443299 26.5568547,1.35468021 26.6222872,1.47674128 C26.6280461,1.48783944 26.6280461,1.48783944 26.6346834,1.50041917 C26.6436853,1.5178812 26.6436853,1.5178812 26.6444176,1.51964409 L26.6592983,1.55155395 C26.8487963,1.92315775 26.9806526,2.33184391 27.0455,2.7662484 C27.0868416,3.01547937 27.107483,3.25086577 27.107483,3.47315211 L27.107483,22.0823787 C27.107483,22.5545387 27.0817563,22.9887406 27.0321537,23.4133561 C27.0197512,23.5324899 27.0042647,23.6211075 26.9645231,23.8181006 C26.9628913,23.8261889 26.9628913,23.8261889 26.9612504,23.8343248 C26.947222,23.9039989 26.947222,23.9039989 26.9330426,23.9775934 C26.9211989,24.0365088 26.9211989,24.0365088 26.908632,24.0997032 C26.8705468,24.2907893 26.8487649,24.3895849 26.8226088,24.4824971 C26.7781093,24.6352282 26.7284295,24.7820592 26.6771846,24.9106673 C26.5895728,25.1331103 26.4968155,25.3256663 26.3988769,25.4900959 C26.3831521,25.5149537 26.3670311,25.5444271 26.3443884,25.5881535 C26.3424256,25.5919274 26.3424256,25.5919274 26.3405751,25.5954836 C26.3237068,25.6273306 26.3229928,25.6286126 26.3207916,25.6319584 C26.1694603,25.8621502 25.9983854,26.051906 25.7646882,26.2622796 C25.7205424,26.3061683 25.7074668,26.3191678 25.6959303,26.3333632 Z"></path>
                            </g>
                        </g>
                    </g>
                </g>
            </g>
        </g>
    </g>
</svg>