<?xml version="1.0" encoding="UTF-8"?>
<svg width="22px" height="34px" viewBox="0 0 22 34" version="1.1" xmlns="http://www.w3.org/2000/svg" xmlns:xlink="http://www.w3.org/1999/xlink">
    <!-- Generator: Sketch 43.1 (39012) - http://www.bohemiancoding.com/sketch -->
    <title>sell_icn</title>
    <desc>Created with Sketch.</desc>
    <defs></defs>
    <g id="Page-1" stroke="none" stroke-width="1" fill="none" fill-rule="evenodd">
        <g id="index" transform="translate(-798.000000, -802.000000)">
            <g id="block-4" transform="translate(712.000000, 776.000000)">
                <g id="title" transform="translate(73.000000, 23.000000)">
                    <g id="sell_icn" transform="translate(23.676384, 23.676384) rotate(35.000000) translate(-23.676384, -23.676384) translate(6.676384, 6.676384)">
                        <g id="icon_seller" transform="translate(16.836445, 16.803894) rotate(10.000000) translate(-16.836445, -16.803894) translate(2.836445, 2.803894)">
                            <path d="M13.2480359,0.41205334 C13.1061267,0.386781831 12.9627595,0.371230133 12.8174483,0.367342208 L2.73800415,0.0140270732 C1.07980437,-0.14586382 -0.14586382,1.07980437 0.0140270732,2.73800415 L0.367342208,12.8174483 C0.371230133,12.9627595 0.386781831,13.1066127 0.41205334,13.2485219 C0.479120037,13.8195608 0.667198382,14.2263349 0.939839085,14.4547505 C1.0059338,14.5397988 1.07688842,14.6224172 1.15464691,14.7001757 L13.4856853,27.0312141 C14.6195013,28.1650301 16.5726973,28.067832 17.826067,26.8144623 L26.8144623,17.826067 C28.067346,16.5731833 28.1650301,14.6195013 27.0312141,13.4856853 L14.7001757,1.15464691 C14.6224172,1.07688842 14.5397988,1.0059338 14.4547505,0.939839085 C14.2263349,0.667198382 13.8195608,0.479120037 13.2480359,0.41205334 Z" id="Stroke-1" stroke="#E74D46" stroke-width="2" fill="#E74D46"></path>
                            <path d="M8.29130529,5.40147866 C9.03875877,6.14893214 9.03875877,7.3605066 8.29130529,8.10747408 C7.54385182,8.85492756 6.33227736,8.85492756 5.58530987,8.10747408 C4.83785639,7.3605066 4.83785639,6.14893214 5.58530987,5.40147866 C6.33227736,4.65402518 7.54385182,4.65402518 8.29130529,5.40147866 L8.29130529,5.40147866 Z" id="Stroke-3" stroke="#FFFFFF" stroke-width="2" fill="#FFFFFF"></path>
                            <polygon id="yen" fill="#FFFFFF" transform="translate(15.035195, 14.892217) rotate(315.000000) translate(-15.035195, -14.892217) " points="17.7149846 8.96413268 15.0840175 14.128694 12.4202311 8.96413268 9.26958013 8.96413268 12.6477962 14.6483778 10.4551427 14.6483778 10.4551427 16.2239745 13.5895196 16.2239745 13.6057937 16.2727966 13.6057937 17.2958902 10.4551427 17.2958902 10.4551427 18.8714869 13.6057937 18.8714869 13.6057937 20.8203012 16.4643259 20.8203012 16.4643259 18.8714869 19.6155193 18.8714869 19.6155193 17.2958902 16.4643259 17.2958902 16.4643259 16.2727966 16.4805999 16.2239745 19.6155193 16.2239745 19.6155193 14.6483778 17.4228658 14.6483778 20.8008106 8.96413268"></polygon>
                        </g>
                    </g>
                </g>
            </g>
        </g>
    </g>
</svg>