<?xml version="1.0" encoding="UTF-8"?>
<svg width="35px" height="30px" viewBox="0 0 35 30" version="1.1" xmlns="http://www.w3.org/2000/svg" xmlns:xlink="http://www.w3.org/1999/xlink">
    <!-- Generator: Sketch 43.1 (39012) - http://www.bohemiancoding.com/sketch -->
    <title>buy_icn</title>
    <desc>Created with Sketch.</desc>
    <defs></defs>
    <g id="Page-1" stroke="none" stroke-width="1" fill="none" fill-rule="evenodd">
        <g id="index" transform="translate(-418.000000, -1120.000000)">
            <g id="block-5" transform="translate(342.000000, 1089.000000)">
                <g id="title" transform="translate(76.000000, 28.000000)">
                    <g id="buy_icn" transform="translate(0.000000, 3.000000)">
                        <path d="M13.2536383,29.4489364 C14.7178703,29.4489364 15.9043659,28.0977947 15.9043659,26.4317853 C15.9043659,24.7657758 14.7178703,23.4146341 13.2536383,23.4146341 C11.7894062,23.4146341 10.6029106,24.7657758 10.6029106,26.4317853 C10.6029106,28.0977947 11.7894062,29.4489364 13.2536383,29.4489364 L13.2536383,29.4489364 Z" id="Stroke-224" stroke="#E74D46" fill="#E74D46"></path>
                        <path d="M23.8590295,29.4545836 C25.3246319,29.4545836 26.5122379,28.1021775 26.5122379,26.4346089 C26.5122379,24.7670403 25.3246319,23.4146341 23.8590295,23.4146341 C22.3934272,23.4146341 21.2058212,24.7670403 21.2058212,26.4346089 C21.2058212,28.1021775 22.3934272,29.4545836 23.8590295,29.4545836 L23.8590295,29.4545836 Z" id="Stroke-226" stroke="#E74D46" fill="#E74D46"></path>
                        <path d="M33.3149933,5.53422949 C33.6887759,5.53422949 33.9069958,5.58387084 33.7975258,5.92781449 L27.8836223,20.2525431 C27.7763129,20.5901043 27.4831924,21 27.226802,21 L9.83978912,21 C9.58411893,21 9.29243887,20.4872758 9.18296881,20.1433321 L5.29462143,6.04979038 C5.18659177,5.71222919 5.40121069,5.53422949 5.77715389,5.53422949 L33.3149933,5.53422949 Z" id="Stroke-228" stroke="#E74D46" stroke-width="2" fill="#E74D46"></path>
                        <rect id="Rectangle-5" fill="#FFFFFF" x="5.26668459" y="9.71036585" width="28.5591289" height="1.76022238"></rect>
                        <path d="M5.60967945,7.94117647 L4.00691389,2.64705882" id="Stroke-230" stroke="#E74D46" stroke-width="2" stroke-linecap="round"></path>
                        <rect id="Rectangle-6" fill="#E74D46" x="0" y="0.882352941" width="6.75185345" height="1.8938307" rx="0.946915352"></rect>
                    </g>
                </g>
            </g>
        </g>
    </g>
</svg>