<?xml version="1.0" encoding="UTF-8"?>
<svg width="34px" height="32px" viewBox="0 0 34 32" version="1.1" xmlns="http://www.w3.org/2000/svg" xmlns:xlink="http://www.w3.org/1999/xlink">
    <!-- Generator: Sketch 48 (47235) - http://www.bohemiancoding.com/sketch -->
    <title>return_icn</title>
    <desc>Created with Sketch.</desc>
    <defs>
        <polygon id="path-1" points="1.2526129e-05 0.0846445572 33.8843646 0.0846445572 33.8843646 23.160359 1.2526129e-05 23.160359"></polygon>
        <polygon id="path-3" points="0.00312529804 0 16.3526693 0 16.3526693 6.98085265 0.00312529804 6.98085265"></polygon>
        <polygon id="path-5" points="0.00658649261 0 16.3561305 0 16.3561305 6.98085265 0.00658649261 6.98085265"></polygon>
    </defs>
    <g id="index" stroke="none" stroke-width="1" fill="none" fill-rule="evenodd" transform="translate(-420.000000, -1433.000000)">
        <g id="block-5-copy" transform="translate(342.000000, 1403.000000)">
            <g id="title" transform="translate(76.000000, 26.000000)">
                <g id="return_icn" transform="translate(2.000000, 4.000000)">
                    <g id="Group-3" transform="translate(0.000000, 8.157108)">
                        <mask id="mask-2" fill="white">
                            <use xlink:href="#path-1"></use>
                        </mask>
                        <g id="Clip-2"></g>
                        <path d="M0.00316911063,0.0846445572 L0.00316911063,20.8334129 C0.00316911063,23.1603735 -0.174271876,23.1603735 2.1315847,23.1603735 L31.7526922,23.1603735 C34.0585488,23.1603735 33.8812539,23.1603735 33.8812539,20.8334129 L33.8812539,0.0846445572 L0.00316911063,0.0846445572 Z" id="Fill-1" fill="#E74D46" mask="url(#mask-2)"></path>
                    </g>
                    <g id="Group-6">
                        <mask id="mask-4" fill="white">
                            <use xlink:href="#path-3"></use>
                        </mask>
                        <g id="Clip-5"></g>
                        <path d="M16.3526693,6.98085265 L16.3526693,-2.9132527e-05 L10.2907594,-2.9132527e-05 C9.26656712,-2.9132527e-05 8.6943747,0.387870464 7.45287196,1.35740096 C6.56595911,1.93917753 0.00312529804,6.98085265 0.00312529804,6.98085265 L16.3526693,6.98085265 Z" id="Fill-4" fill="#E74D46" mask="url(#mask-4)"></path>
                    </g>
                    <g id="Group-9" transform="translate(17.525036, 0.000000)">
                        <mask id="mask-6" fill="white">
                            <use xlink:href="#path-5"></use>
                        </mask>
                        <g id="Clip-8"></g>
                        <path d="M0.00658649261,6.98085265 L0.00658649261,-2.9132527e-05 L6.06849636,-2.9132527e-05 C7.09268866,-2.9132527e-05 7.66488108,0.387870464 8.90652986,1.35740096 C9.79344272,1.93917753 16.3561305,6.98085265 16.3561305,6.98085265 L0.00658649261,6.98085265 Z" id="Fill-7" fill="#E74D46" mask="url(#mask-6)"></path>
                    </g>
                    <path d="M10.8097049,23.4516842 L10.8097049,25.927949 L17.6736773,25.927949 C20.8866005,25.927949 24.0995237,23.8886721 24.0995237,20.2471063 C24.0995237,15.5859019 20.8866005,14.1292756 18.2578451,14.1292756 L15.0449219,14.1292756 L15.0449219,11.0703603 L9.93345315,15.5859019 L14.9719009,19.8829497 L14.9719009,16.6783717 L18.2578451,16.6783717 C20.0103487,16.6783717 21.4707684,17.7708415 21.5437893,20.0286123 C21.6074636,21.9953492 19.5722228,23.4516842 17.5276353,23.4516842 L10.8097049,23.4516842 Z" id="Fill-10" fill="#FEFEFE"></path>
                </g>
            </g>
        </g>
    </g>
</svg>